<svg width="499" height="499" viewBox="0 0 499 499" fill="none" xmlns="http://www.w3.org/2000/svg">
<g clip-path="url(#clip0_207_31)">
<path d="M226.408 192.087H235.813C203.367 139.422 258.618 114.735 258.618 114.735C241.69 129.547 268.493 148.121 268.493 148.121C291.299 162.228 268.493 192.087 268.493 192.087H286.832C362.068 47.4933 214.888 37.6185 214.888 37.6185C214.888 37.6185 232.756 58.7786 189.26 108.387C145.765 157.996 226.408 192.087 226.408 192.087Z" fill="url(#paint0_linear_207_31)" fill-opacity="0.25"/>
<path d="M320.453 207.134C318.572 204.548 315.516 203.137 312.224 203.137H187.145C183.853 203.137 180.797 204.548 178.916 207.134C177.035 209.721 176.33 213.012 177.035 216.304L239.575 453.297C240.75 457.999 244.982 461.056 249.685 461.056C254.387 461.056 258.619 457.764 259.794 453.297L322.334 216.304C323.04 213.012 322.334 209.721 320.453 207.134Z" fill="url(#paint1_linear_207_31)" fill-opacity="0.25"/>
<path d="M97.8017 341.148C83.9301 318.813 76.4065 292.01 80.4034 265.442C82.7545 248.749 89.3376 233.232 98.0368 218.655C105.795 220.301 115.67 211.837 121.078 198.2C126.72 183.858 122.488 151.883 122.488 151.883C122.488 151.883 98.0368 172.103 92.3941 186.445C86.7514 200.786 88.6323 215.128 96.6261 218.42C87.2216 232.527 79.9332 247.809 76.6416 264.737C70.9989 292.01 77.582 320.929 90.9834 344.91C104.385 369.362 123.429 390.052 144.119 408.155C165.044 426.259 187.379 442.011 212.066 455.413L218.884 441.541C195.373 430.021 172.332 415.444 151.642 398.986C130.717 382.763 111.673 363.719 97.8017 341.148Z" fill="url(#paint2_linear_207_31)" fill-opacity="0.25"/>
<path d="M73.3498 247.574C75.2307 239.345 64.6506 229.94 49.6035 226.649C34.5563 223.357 3.52148 232.527 3.52148 232.527C3.52148 232.527 27.2678 253.452 42.315 256.743C57.3622 260.035 71.2338 256.038 73.3498 247.574Z" fill="url(#paint3_linear_207_31)" fill-opacity="0.25"/>
<path d="M88.1619 258.154C93.0993 265.207 107.441 263.796 120.137 255.332C132.833 246.868 147.41 218.42 147.41 218.42C147.41 218.42 115.2 221.476 102.504 229.94C89.5726 238.639 82.9895 251.1 88.1619 258.154Z" fill="url(#paint4_linear_207_31)" fill-opacity="0.25"/>
<path d="M93.8046 310.114C99.2121 316.697 113.319 314.581 125.545 305.411C137.771 296.007 150.467 267.088 150.467 267.088C150.467 267.088 118.491 272.025 106.265 281.195C94.0397 290.364 88.397 303.295 93.8046 310.114Z" fill="url(#paint5_linear_207_31)" fill-opacity="0.25"/>
<path d="M129.777 325.631C119.903 337.386 117.317 351.258 123.9 356.666C130.483 362.073 143.884 356.901 153.759 344.91C163.634 333.154 169.747 301.885 169.747 301.885C169.747 301.885 139.652 313.875 129.777 325.631Z" fill="url(#paint6_linear_207_31)" fill-opacity="0.25"/>
<path d="M163.633 372.888C154.464 385.114 152.583 399.221 159.636 404.158C166.689 409.096 179.621 403.218 188.79 390.757C197.959 378.531 202.191 347.026 202.191 347.026C202.191 347.026 172.802 360.428 163.633 372.888Z" fill="url(#paint7_linear_207_31)" fill-opacity="0.25"/>
<path d="M69.8234 306.352C71.7043 298.123 61.1243 288.718 46.0771 285.427C31.0299 282.135 -0.00488281 291.305 -0.00488281 291.305C-0.00488281 291.305 23.7414 312.465 38.7886 315.756C54.0709 318.578 67.9425 314.581 69.8234 306.352Z" fill="url(#paint8_linear_207_31)" fill-opacity="0.25"/>
<path d="M96.6264 370.067C98.7424 361.838 88.1624 352.434 73.1152 349.142C58.068 345.85 27.0332 355.02 27.0332 355.02C27.0332 355.02 50.7795 375.945 65.8267 379.236C80.6388 382.528 94.5104 378.296 96.6264 370.067Z" fill="url(#paint9_linear_207_31)" fill-opacity="0.25"/>
<path d="M124.369 409.331C109.322 406.039 78.2871 415.209 78.2871 415.209C78.2871 415.209 102.033 436.134 117.081 439.66C132.128 442.952 145.999 438.72 147.88 430.491C149.996 422.027 139.416 412.622 124.369 409.331Z" fill="url(#paint10_linear_207_31)" fill-opacity="0.25"/>
<path d="M407.679 344.91C421.081 320.929 427.664 292.01 422.021 264.737C418.73 247.809 411.441 232.291 402.037 218.42C409.795 215.128 411.676 200.786 406.269 186.445C400.626 172.103 376.174 151.883 376.174 151.883C376.174 151.883 371.942 183.858 377.585 198.2C382.757 211.602 392.867 220.301 400.626 218.655C409.325 232.997 415.908 248.749 418.259 265.442C422.491 292.01 414.968 318.813 400.861 341.148C386.989 363.719 367.945 382.763 347.02 399.221C326.331 415.679 303.29 430.256 279.778 441.776L286.597 455.648C311.283 442.247 333.619 426.494 354.544 408.39C375.469 390.052 394.278 369.362 407.679 344.91Z" fill="url(#paint11_linear_207_31)" fill-opacity="0.25"/>
<path d="M456.583 256.743C471.631 253.452 495.377 232.527 495.377 232.527C495.377 232.527 464.342 223.357 449.295 226.649C434.248 229.94 423.668 239.345 425.549 247.574C427.665 256.038 441.536 260.035 456.583 256.743Z" fill="url(#paint12_linear_207_31)" fill-opacity="0.25"/>
<path d="M410.737 258.154C415.674 251.1 409.326 238.404 396.395 229.94C383.699 221.476 351.488 218.42 351.488 218.42C351.488 218.42 365.83 246.633 378.761 255.332C391.692 263.796 406.034 265.207 410.737 258.154Z" fill="url(#paint13_linear_207_31)" fill-opacity="0.25"/>
<path d="M373.354 305.176C385.579 314.581 399.921 316.697 405.094 309.878C410.501 303.06 404.859 290.129 392.633 280.96C380.407 271.555 348.432 266.853 348.432 266.853C348.432 266.853 361.128 296.007 373.354 305.176Z" fill="url(#paint14_linear_207_31)" fill-opacity="0.25"/>
<path d="M374.999 356.666C381.582 351.258 378.996 337.387 369.121 325.631C359.247 313.875 329.152 302.12 329.152 302.12C329.152 302.12 335.03 333.39 345.14 345.145C355.015 356.901 368.416 362.073 374.999 356.666Z" fill="url(#paint15_linear_207_31)" fill-opacity="0.25"/>
<path d="M296.707 347.026C296.707 347.026 300.939 378.531 310.108 390.757C319.278 403.218 332.444 409.096 339.262 404.158C346.316 399.221 344.435 385.114 335.265 372.888C326.096 360.428 296.707 347.026 296.707 347.026Z" fill="url(#paint16_linear_207_31)" fill-opacity="0.25"/>
<path d="M452.586 285.192C437.539 288.483 426.959 297.888 428.84 306.117C430.956 314.345 444.592 318.578 459.639 315.286C474.686 311.994 498.433 290.834 498.433 290.834C498.433 290.834 467.633 281.9 452.586 285.192Z" fill="url(#paint17_linear_207_31)" fill-opacity="0.25"/>
<path d="M426.018 349.142C410.971 352.434 400.391 361.838 402.507 370.067C404.388 378.296 418.259 382.528 433.306 379.236C448.354 375.945 472.1 355.02 472.1 355.02C472.1 355.02 441.065 345.85 426.018 349.142Z" fill="url(#paint18_linear_207_31)" fill-opacity="0.25"/>
<path d="M374.529 409.331C359.482 412.622 348.902 422.027 350.783 430.256C352.664 438.485 366.535 442.717 381.583 439.425C396.63 436.134 420.376 414.974 420.376 414.974C420.376 414.974 389.576 406.274 374.529 409.331Z" fill="url(#paint19_linear_207_31)" fill-opacity="0.25"/>
</g>
<defs>
<linearGradient id="paint0_linear_207_31" x1="242.315" y1="37.6185" x2="242.315" y2="192.087" gradientUnits="userSpaceOnUse">
<stop stop-color="#210043"/>
<stop offset="1" stop-color="#340068"/>
</linearGradient>
<linearGradient id="paint1_linear_207_31" x1="249.685" y1="203.137" x2="249.685" y2="461.056" gradientUnits="userSpaceOnUse">
<stop stop-color="#210043"/>
<stop offset="1" stop-color="#340068"/>
</linearGradient>
<linearGradient id="paint2_linear_207_31" x1="146.75" y1="151.883" x2="146.75" y2="455.413" gradientUnits="userSpaceOnUse">
<stop stop-color="#210043"/>
<stop offset="1" stop-color="#340068"/>
</linearGradient>
<linearGradient id="paint3_linear_207_31" x1="38.5439" y1="225.935" x2="38.5439" y2="257.893" gradientUnits="userSpaceOnUse">
<stop stop-color="#210043"/>
<stop offset="1" stop-color="#340068"/>
</linearGradient>
<linearGradient id="paint4_linear_207_31" x1="116.901" y1="218.42" x2="116.901" y2="262.67" gradientUnits="userSpaceOnUse">
<stop stop-color="#210043"/>
<stop offset="1" stop-color="#340068"/>
</linearGradient>
<linearGradient id="paint5_linear_207_31" x1="121.108" y1="267.088" x2="121.108" y2="313.944" gradientUnits="userSpaceOnUse">
<stop stop-color="#210043"/>
<stop offset="1" stop-color="#340068"/>
</linearGradient>
<linearGradient id="paint6_linear_207_31" x1="145.005" y1="301.885" x2="145.005" y2="358.806" gradientUnits="userSpaceOnUse">
<stop stop-color="#210043"/>
<stop offset="1" stop-color="#340068"/>
</linearGradient>
<linearGradient id="paint7_linear_207_31" x1="178.772" y1="347.026" x2="178.772" y2="405.903" gradientUnits="userSpaceOnUse">
<stop stop-color="#210043"/>
<stop offset="1" stop-color="#340068"/>
</linearGradient>
<linearGradient id="paint8_linear_207_31" x1="35.0175" y1="284.714" x2="35.0175" y2="316.656" gradientUnits="userSpaceOnUse">
<stop stop-color="#210043"/>
<stop offset="1" stop-color="#340068"/>
</linearGradient>
<linearGradient id="paint9_linear_207_31" x1="61.9645" y1="348.429" x2="61.9645" y2="380.357" gradientUnits="userSpaceOnUse">
<stop stop-color="#210043"/>
<stop offset="1" stop-color="#340068"/>
</linearGradient>
<linearGradient id="paint10_linear_207_31" x1="113.218" y1="408.618" x2="113.218" y2="440.78" gradientUnits="userSpaceOnUse">
<stop stop-color="#210043"/>
<stop offset="1" stop-color="#340068"/>
</linearGradient>
<linearGradient id="paint11_linear_207_31" x1="351.912" y1="151.883" x2="351.912" y2="455.648" gradientUnits="userSpaceOnUse">
<stop stop-color="#210043"/>
<stop offset="1" stop-color="#340068"/>
</linearGradient>
<linearGradient id="paint12_linear_207_31" x1="460.354" y1="225.935" x2="460.354" y2="257.893" gradientUnits="userSpaceOnUse">
<stop stop-color="#210043"/>
<stop offset="1" stop-color="#340068"/>
</linearGradient>
<linearGradient id="paint13_linear_207_31" x1="381.949" y1="218.42" x2="381.949" y2="262.67" gradientUnits="userSpaceOnUse">
<stop stop-color="#210043"/>
<stop offset="1" stop-color="#340068"/>
</linearGradient>
<linearGradient id="paint14_linear_207_31" x1="377.79" y1="266.853" x2="377.79" y2="313.878" gradientUnits="userSpaceOnUse">
<stop stop-color="#210043"/>
<stop offset="1" stop-color="#340068"/>
</linearGradient>
<linearGradient id="paint15_linear_207_31" x1="353.894" y1="302.12" x2="353.894" y2="358.811" gradientUnits="userSpaceOnUse">
<stop stop-color="#210043"/>
<stop offset="1" stop-color="#340068"/>
</linearGradient>
<linearGradient id="paint16_linear_207_31" x1="320.126" y1="347.026" x2="320.126" y2="405.903" gradientUnits="userSpaceOnUse">
<stop stop-color="#210043"/>
<stop offset="1" stop-color="#340068"/>
</linearGradient>
<linearGradient id="paint17_linear_207_31" x1="463.528" y1="284.463" x2="463.528" y2="316.406" gradientUnits="userSpaceOnUse">
<stop stop-color="#210043"/>
<stop offset="1" stop-color="#340068"/>
</linearGradient>
<linearGradient id="paint18_linear_207_31" x1="437.169" y1="348.429" x2="437.169" y2="380.357" gradientUnits="userSpaceOnUse">
<stop stop-color="#210043"/>
<stop offset="1" stop-color="#340068"/>
</linearGradient>
<linearGradient id="paint19_linear_207_31" x1="385.471" y1="408.68" x2="385.471" y2="440.545" gradientUnits="userSpaceOnUse">
<stop stop-color="#210043"/>
<stop offset="1" stop-color="#340068"/>
</linearGradient>
<clipPath id="clip0_207_31">
<rect width="498.438" height="498.438" fill="white" transform="translate(-0.00488281 0.118164)"/>
</clipPath>
</defs>
</svg>
