<svg width="91" height="42" viewBox="0 0 91 42" fill="none" xmlns="http://www.w3.org/2000/svg">
<path d="M29.0629 15.6522C29.291 15.6386 29.516 15.6173 29.7471 15.6173C30.0037 15.6173 30.2543 15.6401 30.5064 15.6568C30.4869 15.3414 30.4584 15.029 30.4584 14.7091C30.4584 14.0025 30.5244 13.3111 30.6204 12.6303C30.3293 12.6121 30.0412 12.5848 29.7456 12.5848C29.4755 12.5848 29.2114 12.6106 28.9443 12.6258C29.0404 13.3081 29.1079 13.9995 29.1079 14.7076C29.1094 15.026 29.0824 15.3383 29.0629 15.6522Z" fill="#F3D55B"/>
<path d="M25.9941 16.2617C26.0616 15.7523 26.1082 15.2352 26.1082 14.7076C26.1082 14.1602 26.0571 13.6265 25.9851 13.1003C20.07 14.703 15.6419 19.9735 15.2383 26.3478C16.3067 26.2841 17.3345 26.0764 18.3069 25.7383C18.8936 21.3169 21.9307 17.6779 25.9941 16.2617Z" fill="#F3D55B"/>
<path d="M29.7481 38.9675C23.917 38.9675 19.0958 34.578 18.317 28.8997C17.3642 29.1574 16.3753 29.3181 15.3564 29.3742C16.3633 36.4991 22.424 42 29.7481 42C37.0737 42 43.1358 36.4976 44.1412 29.3712C43.1238 29.309 42.135 29.1453 41.1836 28.8815C40.4124 34.5689 35.5852 38.9675 29.7481 38.9675Z" fill="#F3D55B"/>
<path d="M33.582 13.1187C33.5114 13.6402 33.4619 14.1679 33.4619 14.7077C33.4619 15.2459 33.5114 15.7721 33.5805 16.2906C37.5944 17.7235 40.5925 21.3291 41.1837 25.7096C42.156 26.0568 43.1854 26.2736 44.2568 26.3449C43.8531 19.9979 39.4596 14.7441 33.582 13.1187Z" fill="#F3D55B"/>
<path d="M56.4651 16.1951C56.5266 15.7069 56.5702 15.2126 56.5702 14.7077C56.5702 14.1467 56.5176 13.5978 56.4411 13.058C50.4435 14.6076 45.9359 19.9205 45.5322 26.357C46.5946 26.31 47.621 26.125 48.5903 25.8051C49.1635 21.2882 52.2921 17.5719 56.4651 16.1951Z" fill="#24AE5F"/>
<path d="M64.0514 16.3573C67.9558 17.825 70.8624 21.3594 71.4656 25.6428C72.4394 26.0082 73.4718 26.2477 74.5477 26.3357C74.144 20.0508 69.83 14.8365 64.0349 13.161C63.9674 13.669 63.9209 14.1814 63.9209 14.7076C63.9224 15.2686 63.9749 15.816 64.0514 16.3573Z" fill="#24AE5F"/>
<path d="M60.0415 38.9674C54.2254 38.9674 49.4132 34.5991 48.6164 28.942C47.6606 29.1891 46.6702 29.3392 45.6514 29.3832C46.6612 36.5035 52.7204 41.9999 60.043 41.9999C67.3716 41.9999 73.4368 36.4929 74.4376 29.362C73.4203 29.2892 72.4329 29.1133 71.4846 28.8389C70.7298 34.546 65.8921 38.9674 60.0415 38.9674Z" fill="#24AE5F"/>
<path d="M59.5247 15.6431C59.6973 15.6355 59.8668 15.6173 60.0409 15.6173C60.3545 15.6173 60.6621 15.6401 60.9697 15.6643C60.9487 15.3459 60.9217 15.0305 60.9217 14.7076C60.9217 14.0025 60.9877 13.3157 61.0838 12.6379C60.7387 12.6136 60.3935 12.5848 60.0424 12.5848C59.8278 12.5848 59.6208 12.6076 59.4092 12.6167C59.5067 13.302 59.5742 13.9965 59.5742 14.7076C59.5712 15.023 59.5442 15.3323 59.5247 15.6431Z" fill="#24AE5F"/>
<path d="M29.0652 15.6522C27.9968 15.7159 26.9689 15.9236 25.9966 16.2618C25.4114 20.6831 22.3728 24.3221 18.3094 25.7383C18.2418 26.2478 18.1953 26.7648 18.1953 27.2925C18.1953 27.8398 18.2463 28.3735 18.3184 28.8997C24.232 27.297 28.6615 22.0265 29.0652 15.6522Z" fill="#0096E6"/>
<path d="M15.2409 26.3478C15.0128 26.3615 14.7863 26.3827 14.5552 26.3827C8.18392 26.3827 3.00107 21.1456 3.00107 14.7076C3.00107 8.26961 8.18392 3.03249 14.5552 3.03249C20.3863 3.03249 25.2075 7.42203 25.9863 13.1004C26.9391 12.8426 27.928 12.6819 28.9468 12.6258C27.94 5.50094 21.8793 0 14.5552 0C6.52883 0 0 6.59871 0 14.7076C0 22.8165 6.53033 29.4152 14.5552 29.4152C14.8253 29.4152 15.0894 29.3894 15.3565 29.3743C15.2604 28.6919 15.1929 28.0005 15.1929 27.2925C15.1929 26.974 15.2199 26.6617 15.2409 26.3478Z" fill="#0096E6"/>
<path d="M18.194 27.2924C18.194 26.7648 18.2405 26.2477 18.308 25.7383C17.3372 26.0764 16.3078 26.2841 15.2394 26.3478C15.2199 26.6617 15.1914 26.974 15.1914 27.2924C15.1914 28.0005 15.2589 28.6919 15.355 29.3742C16.3738 29.3181 17.3627 29.1574 18.3155 28.8997C18.245 28.372 18.194 27.8383 18.194 27.2924Z" fill="#F3D55B"/>
<path d="M26.1079 14.7077C26.1079 15.2353 26.0614 15.7524 25.9938 16.2618C26.9647 15.9237 27.994 15.716 29.0624 15.6523C29.0819 15.3384 29.1104 15.0261 29.1104 14.7077C29.1104 13.9996 29.0429 13.3082 28.9469 12.6259C27.928 12.682 26.9392 12.8427 25.9863 13.1004C26.0584 13.6281 26.1079 14.1618 26.1079 14.7077Z" fill="#0096E6"/>
<path d="M45.0162 3.03249C50.8322 3.03249 55.6445 7.4008 56.4412 13.0579C57.3971 12.8108 58.3874 12.6607 59.4063 12.6167C58.3964 5.4964 52.3373 0 45.0162 0C37.6906 0 31.6284 5.50246 30.623 12.6288C31.6404 12.691 32.6293 12.8547 33.5806 13.1186C34.3534 7.43113 39.1791 3.03249 45.0162 3.03249Z" fill="#38454F"/>
<path d="M59.5243 15.6429C58.4619 15.6899 57.4355 15.8749 56.4662 16.1949C55.8945 20.7118 52.7659 24.4281 48.5914 25.8048C48.5298 26.2931 48.4863 26.7874 48.4863 27.2923C48.4863 27.8533 48.5388 28.4022 48.6154 28.9419C54.613 27.3908 59.1206 22.0794 59.5243 15.6429Z" fill="#38454F"/>
<path d="M45.5321 26.3568C45.3595 26.3644 45.19 26.3826 45.0159 26.3826C44.7593 26.3826 44.5087 26.3598 44.2566 26.3431C44.2761 26.6585 44.3046 26.9709 44.3046 27.2908C44.3046 27.9974 44.2386 28.6888 44.1426 29.3696C44.4337 29.3878 44.7218 29.4151 45.0174 29.4151C45.232 29.4151 45.439 29.3923 45.6506 29.3832C45.5531 28.6979 45.4856 28.0034 45.4856 27.2923C45.4841 26.9769 45.5126 26.6676 45.5321 26.3568Z" fill="#38454F"/>
<path d="M33.5799 16.2905C32.6076 15.9432 31.5782 15.7264 30.5068 15.6552C30.9105 22.0022 35.304 27.2544 41.1816 28.8799C41.2522 28.3583 41.3017 27.8306 41.3017 27.2908C41.3017 26.7526 41.2522 26.2264 41.1831 25.7079C37.1692 24.2765 34.1711 20.6709 33.5799 16.2905Z" fill="#38454F"/>
<path d="M44.2572 26.3448C43.1858 26.2735 42.1565 26.0567 41.1841 25.7095C41.2546 26.228 41.3027 26.7542 41.3027 27.2924C41.3027 27.8322 41.2531 28.3599 41.1826 28.8815C42.134 29.1453 43.1228 29.309 44.1402 29.3712C44.2362 28.6904 44.3022 28.0005 44.3022 27.2924C44.3037 26.9725 44.2767 26.6586 44.2572 26.3448Z" fill="#38454F"/>
<path d="M30.508 15.6552C31.5793 15.7265 32.6087 15.9433 33.5811 16.2905C33.5105 15.772 33.4625 15.2458 33.4625 14.7076C33.4625 14.1678 33.512 13.6401 33.5826 13.1185C32.6312 12.8547 31.6424 12.691 30.625 12.6288C30.529 13.3096 30.463 13.9995 30.463 14.7076C30.4614 15.0275 30.4885 15.3414 30.508 15.6552Z" fill="#F3D55B"/>
<path d="M48.4859 27.2925C48.4859 26.7876 48.5279 26.2933 48.5909 25.8051C47.6216 26.125 46.5952 26.31 45.5328 26.357C45.5133 26.6678 45.4863 26.9771 45.4863 27.2925C45.4863 28.0036 45.5539 28.6981 45.6514 29.3834C46.6718 29.3394 47.6621 29.1893 48.6164 28.9422C48.5399 28.4009 48.4859 27.8535 48.4859 27.2925Z" fill="#24AE5F"/>
<path d="M56.571 14.7077C56.571 15.2126 56.529 15.7069 56.4659 16.1952C57.4353 15.8752 58.4617 15.6903 59.524 15.6432C59.5435 15.3324 59.5705 15.0231 59.5705 14.7077C59.5705 13.9966 59.503 13.3022 59.4055 12.6168C58.3851 12.6608 57.3948 12.8109 56.4404 13.058C56.5185 13.5993 56.571 14.1467 56.571 14.7077Z" fill="#38454F"/>
<path d="M75.4776 0C68.149 0 62.0839 5.50701 61.083 12.6379C62.1004 12.7107 63.0877 12.8866 64.0361 13.161C64.7893 7.45387 69.6255 3.03249 75.4776 3.03249C81.8489 3.03249 87.0318 8.26961 87.0318 14.7076C87.0318 21.1456 81.8489 26.3827 75.4776 26.3827C75.164 26.3827 74.8564 26.36 74.5488 26.3357C74.5698 26.6541 74.5968 26.9695 74.5968 27.2925C74.5968 27.9975 74.5308 28.6844 74.4348 29.3621C74.7799 29.3864 75.125 29.4152 75.4761 29.4152C83.5025 29.4152 90.0313 22.8165 90.0313 14.7076C90.0313 6.59871 83.5025 0 75.4776 0Z" fill="#E64C3C"/>
<path d="M64.0518 16.3574C63.078 15.9919 62.0456 15.7524 60.9697 15.6644C61.3734 21.9493 65.6874 27.1636 71.4825 28.8391C71.55 28.3312 71.5965 27.8187 71.5965 27.2925C71.5965 26.7315 71.544 26.1841 71.4675 25.6428C67.5616 24.1751 64.655 20.6407 64.0518 16.3574Z" fill="#E64C3C"/>
<path d="M74.5469 26.3357C73.4711 26.2493 72.4387 26.0098 71.4648 25.6428C71.5414 26.1826 71.5939 26.7315 71.5939 27.2925C71.5939 27.8186 71.5474 28.3311 71.4799 28.8391C72.4282 29.1135 73.4155 29.2894 74.4329 29.3622C74.5274 28.6844 74.595 27.996 74.595 27.2925C74.595 26.9695 74.568 26.6542 74.5469 26.3357Z" fill="#E64C3C"/>
<path d="M60.9689 15.6644C62.0448 15.7508 63.0772 15.9904 64.051 16.3573C63.9745 15.816 63.922 15.2686 63.922 14.7076C63.922 14.1815 63.9685 13.669 64.036 13.161C63.0877 12.8866 62.1003 12.7107 61.083 12.6379C60.9884 13.3157 60.9209 14.0041 60.9209 14.7076C60.9209 15.0306 60.9479 15.346 60.9689 15.6644Z" fill="#24AE5F"/>
</svg>
