<svg width="82" height="82" viewBox="0 0 82 82" fill="none" xmlns="http://www.w3.org/2000/svg">
<path d="M39.623 49.0532C41.4821 49.0249 43.3454 49.056 45.2051 49.0541C45.1662 50.3928 44.9896 51.7415 44.8567 53.0737C44.7544 54.099 44.6961 55.1383 44.5607 56.159C44.4818 56.0684 44.4043 55.9762 44.324 55.8868C43.8902 55.404 43.3769 55.2849 42.7579 55.2484C42.761 55.1324 42.7639 55.0161 42.76 54.9002C42.7453 54.4574 42.4449 53.9868 42.1205 53.7016C41.8163 53.434 41.4335 53.2792 41.026 53.3128C40.9736 52.7873 40.9989 52.2458 40.9989 51.7178L41.0004 49.0896C40.5488 49.0914 40.0692 49.1238 39.623 49.0532Z" fill="#D7D8BB"/>
<path d="M36.7764 49.2375C36.7805 49.145 36.7683 49.1268 36.8243 49.0489C37.737 48.9786 38.706 49.0294 39.623 49.0532C40.0692 49.1239 40.5488 49.0914 41.0003 49.0897L40.9988 51.7178C40.9988 52.2459 40.9736 52.7873 41.026 53.3128C40.4282 53.3767 39.9357 53.5249 39.5463 54.02C39.5288 54.0422 39.5119 54.0648 39.4957 54.0878C39.4793 54.1109 39.4636 54.1343 39.4485 54.1582C39.4334 54.182 39.4189 54.2062 39.405 54.2308C39.3911 54.2554 39.3779 54.2803 39.3653 54.3055C39.3527 54.3309 39.3407 54.3564 39.3294 54.3823C39.3181 54.4082 39.3075 54.4343 39.2975 54.4607C39.2875 54.4871 39.2782 54.5138 39.2696 54.5407C39.261 54.5675 39.253 54.5946 39.2457 54.6219C39.2385 54.6491 39.232 54.6766 39.2261 54.7043C39.2203 54.7319 39.2152 54.7596 39.2107 54.7875C39.2063 54.8154 39.2026 54.8434 39.1995 54.8714C39.1965 54.8995 39.1942 54.9276 39.1926 54.9558C39.1911 54.984 39.1902 55.0122 39.1901 55.0404C39.19 55.0687 39.1906 55.0969 39.1918 55.1251C39.1931 55.1533 39.1951 55.1814 39.1978 55.2095C39.2006 55.2376 39.204 55.2656 39.2082 55.2936C39.2183 55.3585 39.2203 55.3601 39.236 55.4138C38.6014 55.5718 38.0641 55.7621 37.7052 56.3565C37.5699 56.5804 37.4768 56.8357 37.3895 57.0814C37.1754 56.1099 37.1707 55.0693 37.1061 54.0779C37.0062 52.4637 36.8963 50.8503 36.7764 49.2375Z" fill="#FEFEFE"/>
<path d="M43.9795 61.184C43.8246 62.5912 43.7329 64.0062 43.6109 65.4166C43.3543 68.1508 43.1255 70.8874 42.9244 73.6262L42.6456 77.0459C42.5873 77.8069 42.5682 78.6064 42.4353 79.3563C41.7964 79.3464 41.1575 79.3456 40.5186 79.3537C40.1547 79.3562 39.7212 79.4032 39.3682 79.3328C39.7995 79.2826 40.2481 79.3071 40.6822 79.3082C40.6749 78.3366 40.7349 77.3737 40.7548 76.4037L40.9911 68.1691C41.0277 67.0318 41.0697 65.8839 41.0815 64.7466C41.0923 63.7048 41.066 62.6699 41.1599 61.6305C41.1744 61.6471 41.1875 61.665 41.2034 61.6803C41.4873 61.9524 42.0046 62.0708 42.384 62.0526C43.0747 62.0196 43.5291 61.665 43.9795 61.184Z" fill="#D7D8BB"/>
<path d="M37.8506 61.3862L37.8785 61.3694C38.0466 61.499 38.1694 61.6812 38.3519 61.7932C38.7593 62.0429 39.2797 62.1827 39.7489 62.0501C40.2017 61.922 40.4705 61.6093 40.6878 61.2131C40.8234 61.3432 40.9654 61.5112 41.1461 61.575L41.1597 61.6305C41.0657 62.6699 41.0921 63.7048 41.0813 64.7466C41.0694 65.8839 41.0274 67.0318 40.9908 68.1691L40.7545 76.4037C40.7346 77.3736 40.6746 78.3366 40.682 79.3082C40.2479 79.307 39.7992 79.2825 39.3679 79.3328L37.8506 61.3862Z" fill="#FEFEFE"/>
<path d="M36.7487 48.9659C36.6945 48.9743 36.6408 48.9797 36.5859 48.9831C35.9987 49.0207 35.4166 48.9104 34.9683 48.4991C34.9468 48.4792 34.9259 48.4587 34.9054 48.4376C34.885 48.4166 34.8651 48.3951 34.8457 48.3731C34.8263 48.3511 34.8075 48.3286 34.7892 48.3057C34.771 48.2827 34.7533 48.2593 34.7362 48.2354C34.7191 48.2116 34.7026 48.1874 34.6867 48.1627C34.6708 48.1381 34.6555 48.1131 34.6408 48.0877C34.6262 48.0623 34.6122 48.0365 34.5988 48.0104C34.5855 47.9843 34.5728 47.9579 34.5607 47.9312C34.5486 47.9045 34.5372 47.8775 34.5265 47.8501C34.5158 47.8228 34.5057 47.7953 34.4964 47.7675C34.487 47.7397 34.4784 47.7117 34.4704 47.6835C34.4625 47.6552 34.4552 47.6268 34.4487 47.5983C34.4421 47.5697 34.4363 47.5409 34.4312 47.512C34.4261 47.4832 34.4217 47.4542 34.418 47.4251C34.4143 47.396 34.4113 47.3669 34.4091 47.3376C34.4069 47.3084 34.4054 47.2791 34.4046 47.2498C34.4041 47.2225 34.4042 47.1953 34.405 47.1681C34.4058 47.1408 34.4073 47.1136 34.4094 47.0865C34.4116 47.0593 34.4144 47.0322 34.4178 47.0052C34.4213 46.9781 34.4254 46.9512 34.4302 46.9244C34.435 46.8976 34.4405 46.8709 34.4467 46.8443C34.4527 46.8178 34.4595 46.7914 34.467 46.7652C34.4744 46.739 34.4825 46.713 34.4912 46.6871C34.4999 46.6614 34.5092 46.6358 34.5191 46.6104C34.5291 46.5851 34.5397 46.56 34.5509 46.5352C34.5621 46.5103 34.574 46.4857 34.5864 46.4615C34.5988 46.4372 34.6118 46.4133 34.6254 46.3897C34.639 46.3661 34.6532 46.3428 34.6679 46.3199C34.6826 46.297 34.6979 46.2745 34.7138 46.2523C34.7297 46.2302 34.746 46.2084 34.763 46.1871C34.7799 46.1657 34.7973 46.1448 34.8153 46.1243C34.8333 46.1038 34.8517 46.0838 34.8707 46.0642C35.4125 45.501 36.158 45.482 36.8831 45.4772C37.3702 45.5602 37.8834 45.5315 38.376 45.517C40.3581 45.526 42.3436 45.4954 44.3249 45.532L45.1217 45.5221C45.8363 45.4789 46.5716 45.4539 47.1397 45.9748C47.1608 45.9945 47.1815 46.0148 47.2016 46.0356C47.2217 46.0564 47.2413 46.0778 47.2603 46.0996C47.2793 46.1214 47.2978 46.1437 47.3157 46.1665C47.3336 46.1892 47.3509 46.2124 47.3677 46.236C47.3844 46.2596 47.4005 46.2837 47.416 46.3081C47.4315 46.3326 47.4464 46.3574 47.4606 46.3826C47.4749 46.4078 47.4885 46.4333 47.5015 46.4592C47.5144 46.4851 47.5267 46.5113 47.5383 46.5378C47.5499 46.5643 47.5609 46.5911 47.5711 46.6182C47.5814 46.6453 47.591 46.6726 47.5999 46.7001C47.6088 46.7277 47.617 46.7554 47.6245 46.7834C47.6319 46.8114 47.6387 46.8395 47.6447 46.8678C47.6508 46.8961 47.6561 46.9245 47.6608 46.9532C47.6653 46.9817 47.6692 47.0104 47.6724 47.0392C47.6755 47.0679 47.6779 47.0968 47.6796 47.1256C47.6814 47.1546 47.6823 47.1835 47.6825 47.2125C47.6825 47.2417 47.6819 47.2709 47.6805 47.3001C47.6791 47.3293 47.677 47.3584 47.6742 47.3875C47.6714 47.4166 47.668 47.4456 47.6638 47.4746C47.6596 47.5035 47.6547 47.5323 47.6491 47.561C47.6435 47.5896 47.6373 47.6182 47.6303 47.6466C47.6234 47.675 47.6157 47.7031 47.6074 47.7311C47.5991 47.7591 47.5901 47.787 47.5805 47.8146C47.5708 47.8422 47.5605 47.8695 47.5495 47.8966C47.5385 47.9236 47.5269 47.9504 47.5147 47.977C47.5024 48.0035 47.4895 48.0297 47.4759 48.0556C47.4624 48.0815 47.4483 48.1071 47.4335 48.1323C47.4188 48.1575 47.4034 48.1824 47.3874 48.2069C47.3715 48.2314 47.3549 48.2554 47.3378 48.2791C47.3207 48.3028 47.303 48.326 47.2847 48.3488C47.2664 48.3717 47.2477 48.3941 47.2283 48.416C47.209 48.4379 47.1892 48.4594 47.1688 48.4803C46.656 49.003 45.8917 49.0306 45.2053 49.0541C43.3456 49.056 41.4823 49.0249 39.6232 49.0532C38.7063 49.0293 37.7372 48.9786 36.8246 49.0489C36.7685 49.1268 36.7808 49.145 36.7766 49.2375L36.7487 48.9659Z" fill="#E49008"/>
<path d="M36.7487 48.9659C36.6945 48.9743 36.6408 48.9797 36.5859 48.9831C35.9987 49.0207 35.4166 48.9104 34.9683 48.4991C34.9468 48.4792 34.9259 48.4587 34.9054 48.4376C34.885 48.4166 34.8651 48.3951 34.8457 48.3731C34.8263 48.3511 34.8075 48.3286 34.7892 48.3057C34.771 48.2827 34.7533 48.2593 34.7362 48.2354C34.7191 48.2116 34.7026 48.1874 34.6867 48.1627C34.6708 48.1381 34.6555 48.1131 34.6408 48.0877C34.6262 48.0623 34.6122 48.0365 34.5988 48.0104C34.5855 47.9843 34.5728 47.9579 34.5607 47.9312C34.5486 47.9045 34.5372 47.8775 34.5265 47.8501C34.5158 47.8228 34.5057 47.7953 34.4964 47.7675C34.487 47.7397 34.4784 47.7117 34.4704 47.6835C34.4625 47.6552 34.4552 47.6268 34.4487 47.5983C34.4421 47.5697 34.4363 47.5409 34.4312 47.512C34.4261 47.4832 34.4217 47.4542 34.418 47.4251C34.4143 47.396 34.4113 47.3669 34.4091 47.3376C34.4069 47.3084 34.4054 47.2791 34.4046 47.2498C34.4041 47.2225 34.4042 47.1953 34.405 47.1681C34.4058 47.1408 34.4073 47.1136 34.4094 47.0865C34.4116 47.0593 34.4144 47.0322 34.4178 47.0052C34.4213 46.9781 34.4254 46.9512 34.4302 46.9244C34.435 46.8976 34.4405 46.8709 34.4467 46.8443C34.4527 46.8178 34.4595 46.7914 34.467 46.7652C34.4744 46.739 34.4825 46.713 34.4912 46.6871C34.4999 46.6614 34.5092 46.6358 34.5191 46.6104C34.5291 46.5851 34.5397 46.56 34.5509 46.5352C34.5621 46.5103 34.574 46.4857 34.5864 46.4615C34.5988 46.4372 34.6118 46.4133 34.6254 46.3897C34.639 46.3661 34.6532 46.3428 34.6679 46.3199C34.6826 46.297 34.6979 46.2745 34.7138 46.2523C34.7297 46.2302 34.746 46.2084 34.763 46.1871C34.7799 46.1657 34.7973 46.1448 34.8153 46.1243C34.8333 46.1038 34.8517 46.0838 34.8707 46.0642C35.4125 45.501 36.158 45.482 36.8831 45.4772C37.3702 45.5602 37.8834 45.5315 38.376 45.517C40.3581 45.526 42.3436 45.4954 44.3249 45.532C44.0304 45.8644 42.7376 46.1164 42.252 46.2685C40.9148 46.6872 39.6876 47.4943 38.4442 48.1241C37.9408 48.3792 37.37 48.5538 36.887 48.8334C36.8266 48.8684 36.7849 48.9067 36.7487 48.9659Z" fill="#F6BE0D"/>
<path d="M41.0261 53.3128C41.4336 53.2792 41.8164 53.4341 42.1206 53.7016C42.445 53.9868 42.7454 54.4575 42.7601 54.9002C42.7639 55.0162 42.7611 55.1324 42.7579 55.2484C43.377 55.2849 43.8903 55.4041 44.3241 55.8868C44.4043 55.9762 44.4818 56.0684 44.5607 56.159C44.5377 56.881 44.4915 57.5863 44.3642 58.2992C44.304 58.8028 44.2492 59.3077 44.1683 59.8085C44.1215 60.2683 44.0702 60.7304 43.9797 61.184C43.5292 61.665 43.0748 62.0195 42.3841 62.0526C42.0047 62.0708 41.4874 61.9524 41.2035 61.6803C41.1876 61.665 41.1745 61.6471 41.16 61.6305L41.1465 61.575C40.9658 61.5112 40.8238 61.3432 40.6881 61.2131C40.4709 61.6093 40.2021 61.922 39.7493 62.0501C39.2801 62.1827 38.7597 62.0429 38.3523 61.7932C38.1698 61.6812 38.047 61.499 37.8789 61.3694L37.851 61.3862C37.8347 61.035 37.7716 60.6726 37.7274 60.3233C37.6352 59.5149 37.5446 58.6953 37.5056 57.8826C37.423 57.6524 37.4191 57.3256 37.3896 57.0814C37.4769 56.8357 37.5701 56.5804 37.7053 56.3565C38.0642 55.7621 38.6016 55.5718 39.2361 55.4138C39.2204 55.3601 39.2185 55.3585 39.2083 55.2935C39.2041 55.2656 39.2007 55.2376 39.198 55.2095C39.1953 55.1814 39.1932 55.1532 39.192 55.1251C39.1907 55.0969 39.1901 55.0687 39.1902 55.0404C39.1904 55.0122 39.1912 54.984 39.1928 54.9558C39.1944 54.9276 39.1967 54.8995 39.1997 54.8714C39.2027 54.8433 39.2064 54.8154 39.2109 54.7875C39.2153 54.7596 39.2204 54.7318 39.2262 54.7042C39.2321 54.6766 39.2387 54.6491 39.2459 54.6218C39.2531 54.5946 39.2611 54.5675 39.2697 54.5407C39.2783 54.5137 39.2876 54.4871 39.2976 54.4607C39.3076 54.4343 39.3182 54.4081 39.3295 54.3823C39.3409 54.3564 39.3528 54.3308 39.3654 54.3055C39.378 54.2803 39.3913 54.2554 39.4051 54.2308C39.419 54.2062 39.4335 54.182 39.4486 54.1582C39.4637 54.1343 39.4794 54.1109 39.4958 54.0878C39.5121 54.0648 39.5289 54.0422 39.5464 54.02C39.9358 53.5249 40.4284 53.3767 41.0261 53.3128Z" fill="#118F2D"/>
<path d="M40.2744 55.9889C40.5158 56.0681 40.7561 56.1564 41.0061 56.2036L41.3394 56.2152L41.2627 56.4823C41.0776 56.4263 40.824 56.4351 40.6271 56.4195C40.5004 56.2805 40.3796 56.1457 40.2744 55.9889Z" fill="#A3AE1E"/>
<path d="M40.6279 56.4195C40.8248 56.4351 41.0785 56.4263 41.2635 56.4823C41.2162 56.6935 41.2046 56.9138 41.1519 57.1212C41.0334 57.192 40.9082 57.2586 40.7951 57.3371C40.7962 57.3245 40.7974 57.3118 40.7983 57.2992L40.8026 57.2358C40.8267 56.9065 40.7688 56.7094 40.6279 56.4195Z" fill="#E5DE92"/>
<path d="M41.0727 53.7854C41.5079 53.9486 41.9435 54.131 42.1529 54.5783C42.2528 54.7916 42.2923 55.0415 42.3335 55.2718C41.9759 55.5547 41.6155 55.8477 41.3401 56.2152L41.0068 56.2036C41.02 56.1945 41.0347 56.1873 41.0462 56.1762C41.2792 55.9511 41.0766 54.2173 41.0727 53.7854Z" fill="#D7D8BB"/>
<path d="M40.2747 55.9889C40.2122 55.9434 40.153 55.8975 40.096 55.8451C39.8605 55.6288 39.6899 55.3659 39.6847 55.0362C39.6798 54.7242 39.8304 54.4183 40.0488 54.2011C40.303 53.9483 40.7118 53.7797 41.0722 53.7854C41.0761 54.2173 41.2787 55.9511 41.0458 56.1762C41.0342 56.1873 41.0195 56.1945 41.0064 56.2036C40.7564 56.1564 40.5161 56.0681 40.2747 55.9889Z" fill="#FEFEFE"/>
<path d="M41.1335 57.6002C41.3591 58.335 41.6898 58.7864 42.3446 59.1865C42.1133 59.7402 41.8904 60.2489 41.2926 60.4874C41.2335 60.5107 41.1739 60.5327 41.1139 60.5534L40.995 60.6114C40.6898 60.4772 40.4526 60.2699 40.2894 59.9767C40.0667 59.5764 40.026 59.0596 40.1469 58.6202L40.1667 58.5876L40.3553 58.5425C40.5992 58.2842 40.7962 58.0131 40.9952 57.7195L41.1335 57.6002Z" fill="#D7D8BB"/>
<path d="M40.3553 58.5425C40.6114 58.564 40.8668 58.5917 41.1215 58.6255C41.121 59.2663 41.1396 59.9135 41.1139 60.5534L40.995 60.6115C40.6898 60.4772 40.4526 60.2699 40.2894 59.9767C40.0667 59.5764 40.026 59.0596 40.1469 58.6202L40.1667 58.5876L40.3553 58.5425Z" fill="#FEFEFE"/>
<path d="M42.7581 55.2484C43.3771 55.2849 43.8904 55.4041 44.3242 55.8868C44.4045 55.9762 44.482 56.0684 44.5609 56.159C44.5379 56.881 44.4916 57.5863 44.3643 58.2992C44.3041 58.8028 44.2494 59.3077 44.1685 59.8085C44.1216 60.2683 44.0704 60.7304 43.9798 61.184C43.5294 61.665 43.0749 62.0195 42.3843 62.0526C42.0048 62.0708 41.4875 61.9524 41.2037 61.6803C41.1877 61.665 41.1747 61.6471 41.1602 61.6305L41.1467 61.575L41.1784 61.4639C41.2743 61.4033 41.3647 61.4508 41.4731 61.4718C41.2962 61.3575 41.1534 61.2446 41.002 61.0969C41.2415 61.0408 41.4867 60.9639 41.7034 60.8454C42.3082 60.5147 42.5487 59.9966 42.7365 59.3686C42.7606 59.1462 42.7759 58.9256 42.7865 58.7021C42.6073 58.6535 42.4388 58.6093 42.277 58.5143C41.9023 58.2943 41.7925 57.9833 41.6949 57.5851C41.6573 57.5094 41.6727 57.5331 41.6351 57.4774C41.58 57.3959 41.5433 57.3446 41.5288 57.2437L41.6286 57.1327C41.7788 56.518 42.0029 56.2593 42.5183 55.907L42.6308 55.769C42.6819 55.5994 42.7163 55.4209 42.7581 55.2484Z" fill="#DD0901"/>
<path d="M43.7627 58.9398C43.9564 58.7204 44.1619 58.5109 44.364 58.2992C44.3038 58.8028 44.249 59.3077 44.1681 59.8085C44.0191 59.5209 43.9405 59.2173 43.7627 58.9398Z" fill="#D7D8BB"/>
<path d="M43.1003 55.7547C43.6417 55.9245 43.8895 56.0684 44.2333 56.523C44.3117 57.1315 44.197 57.5872 43.8215 58.0771C43.766 58.1489 43.709 58.2194 43.6504 58.2888C43.3435 57.8114 43.2809 57.5644 42.7598 57.2519C42.9504 56.7643 43.0232 56.2696 43.1003 55.7547Z" fill="#E5DE92"/>
<path d="M42.7365 59.3686C42.9658 59.3429 43.2497 59.2881 43.4448 59.4474C43.5234 59.5115 43.5934 59.5876 43.6646 59.6597C43.7634 60.1305 43.7542 60.5522 43.4901 60.9758C43.2871 61.3016 42.9676 61.5332 42.5889 61.6055C42.152 61.689 41.8801 61.5079 41.4731 61.4718C41.2962 61.3575 41.1534 61.2446 41.002 61.0969C41.2415 61.0408 41.4867 60.9639 41.7034 60.8454C42.3082 60.5147 42.5487 59.9966 42.7365 59.3686Z" fill="#D7D8BB"/>
<path d="M42.6304 55.769C42.7872 55.7676 42.9441 55.7693 43.1003 55.7547C43.0233 56.2696 42.9504 56.7643 42.7598 57.2519C43.281 57.5644 43.3436 57.8114 43.6505 58.2888C43.5001 58.4205 43.3408 58.5317 43.1762 58.6443L42.786 58.7021C42.6068 58.6535 42.4383 58.6093 42.2766 58.5143C41.9019 58.2943 41.792 57.9833 41.6944 57.5851C41.6568 57.5094 41.6722 57.5331 41.6346 57.4774C41.5795 57.3959 41.5428 57.3446 41.5283 57.2437L41.6282 57.1327C41.7783 56.518 42.0025 56.2593 42.5178 55.907L42.6304 55.769Z" fill="#E49008"/>
<path d="M42.5176 55.907C42.487 56.2681 42.2814 56.8135 41.9933 57.0449C41.8748 57.14 41.7716 57.1439 41.6279 57.1327C41.7781 56.518 42.0022 56.2593 42.5176 55.907Z" fill="#E5DE92"/>
<path d="M41.6943 57.5851C42.3076 57.7306 42.7165 57.8574 43.06 58.4269C43.1024 58.4973 43.1397 58.5707 43.1761 58.6443L42.786 58.7022C42.6067 58.6535 42.4383 58.6093 42.2765 58.5143C41.9018 58.2943 41.792 57.9833 41.6943 57.5851Z" fill="#D7D8BB"/>
<path d="M39.2361 55.4138C39.6893 55.8514 40.096 56.3656 40.3791 56.9301C40.4178 57.1503 40.4398 57.3389 40.4139 57.5637C40.4791 57.6227 40.4922 57.6353 40.5772 57.6537C40.6898 57.5992 40.7416 57.4448 40.795 57.3371C40.908 57.2586 41.0333 57.192 41.1517 57.1212L41.1336 57.6002L40.9952 57.7195C40.7963 58.0131 40.5993 58.2842 40.3554 58.5425L40.1668 58.5876L40.147 58.6202C40.0261 59.0596 40.0667 59.5764 40.2895 59.9767C40.4527 60.2699 40.6899 60.4772 40.9951 60.6114C40.988 60.776 40.9813 60.9328 41.0018 61.0969C41.1532 61.2446 41.296 61.3575 41.473 61.4718C41.3646 61.4507 41.2742 61.4033 41.1782 61.4639L41.1465 61.575C40.9658 61.5112 40.8238 61.3432 40.6881 61.2131C40.4709 61.6093 40.2021 61.922 39.7493 62.0501C39.2801 62.1827 38.7597 62.0429 38.3523 61.7932C38.1698 61.6812 38.047 61.499 37.8789 61.3694L37.851 61.3862C37.8347 61.035 37.7716 60.6726 37.7274 60.3232C37.6352 59.5149 37.5446 58.6953 37.5056 57.8825C37.423 57.6524 37.4191 57.3256 37.3896 57.0814C37.4769 56.8357 37.5701 56.5804 37.7053 56.3565C38.0642 55.7621 38.6016 55.5718 39.2361 55.4138Z" fill="#F6BE0D"/>
<path d="M37.5059 57.8826C37.8531 58.2659 38.112 58.5857 38.5909 58.8181C38.4107 59.4126 38.0916 59.8306 37.7277 60.3233C37.6355 59.5149 37.5449 58.6953 37.5059 57.8826Z" fill="#FEFEFE"/>
<path d="M39.6722 58.8055C39.7291 58.7245 39.7876 58.6447 39.8475 58.5659C39.9757 58.5428 40.0263 58.5758 40.1467 58.6202C40.0258 59.0596 40.0665 59.5764 40.2892 59.9767C40.4524 60.2699 40.6896 60.4772 40.9948 60.6115C40.9877 60.776 40.981 60.9328 41.0015 61.0969C41.153 61.2446 41.2957 61.3575 41.4727 61.4718C41.3643 61.4508 41.2739 61.4033 41.178 61.4639L41.1462 61.575C40.9655 61.5112 40.8235 61.3432 40.6879 61.2131C40.6104 61.1033 40.5364 61.0221 40.4347 60.9347C40.3702 61.0747 40.284 61.2188 40.1775 61.3308C39.9611 61.5585 39.6296 61.6835 39.3193 61.6917C39.0169 61.6997 38.6806 61.5951 38.4605 61.3816C38.2995 61.2255 38.2183 61.0239 38.2218 60.8002C38.2256 60.5554 38.291 60.4261 38.4628 60.2592C38.5671 60.1579 38.661 60.0555 38.7539 59.9438C38.7841 59.7003 38.7405 59.4313 38.8121 59.196C38.8581 59.0448 38.9302 58.9908 39.0652 58.9196C39.2705 58.8895 39.4714 58.8594 39.6722 58.8055Z" fill="#FEFEFE"/>
<path d="M39.6726 58.8055C39.7295 58.7245 39.788 58.6447 39.8479 58.5659C39.976 58.5428 40.0267 58.5758 40.1471 58.6202C40.0262 59.0596 40.0668 59.5764 40.2896 59.9767C40.4528 60.2699 40.69 60.4772 40.9952 60.6115C40.9881 60.776 40.9814 60.9328 41.0019 61.0969C41.1533 61.2446 41.2961 61.3575 41.4731 61.4718C41.3647 61.4508 41.2743 61.4033 41.1783 61.4639L41.1466 61.575C40.9659 61.5112 40.8239 61.3432 40.6882 61.2131C40.6108 61.1033 40.5368 61.0221 40.4351 60.9347C40.262 60.64 39.9967 60.4121 39.8007 60.1328C39.5379 59.7582 39.5944 59.3809 39.679 58.9558C39.6818 58.9419 39.6941 58.8903 39.6918 58.8741C39.6885 58.8506 39.679 58.8284 39.6726 58.8055Z" fill="#F75A02"/>
<path d="M39.2318 58.4729C38.966 58.4264 38.7184 58.3818 38.4828 58.2397C38.1843 58.0597 37.9434 57.7811 37.8637 57.4358C37.8559 57.4023 37.85 57.3685 37.8457 57.3345C37.8415 57.3004 37.8389 57.2662 37.8381 57.2319C37.8374 57.1975 37.8384 57.1632 37.8411 57.129C37.8438 57.0948 37.8483 57.0608 37.8545 57.027C37.8607 56.9933 37.8686 56.9599 37.8783 56.9269C37.8879 56.894 37.8992 56.8616 37.9121 56.8298C37.925 56.7979 37.9395 56.7669 37.9556 56.7365C37.9717 56.7062 37.9893 56.6767 38.0085 56.6482C38.3071 56.1936 38.7939 56.0825 39.2898 55.9818C39.4262 56.2276 39.5596 56.5384 39.7651 56.7309C39.9616 56.9149 40.1157 56.9403 40.3793 56.9301C40.4179 57.1503 40.44 57.3389 40.414 57.5637C40.4793 57.6227 40.4923 57.6353 40.5774 57.6537C40.69 57.5991 40.7417 57.4448 40.7951 57.3371C40.9082 57.2586 41.0334 57.1919 41.1518 57.1212L41.1337 57.6002L40.9954 57.7195C40.7964 58.0131 40.5994 58.2842 40.3555 58.5425L40.1669 58.5876L40.1471 58.6202C40.0267 58.5758 39.9761 58.5428 39.8479 58.5659C39.788 58.6447 39.7296 58.7245 39.6726 58.8055C39.4718 58.8594 39.2709 58.8895 39.0656 58.9196C39.0592 58.731 39.1159 58.6163 39.2318 58.4729Z" fill="#FEFEFE"/>
<path d="M40.7945 57.3371C40.9075 57.2586 41.0328 57.192 41.1512 57.1212L41.1331 57.6002L40.9947 57.7195C40.7957 58.0131 40.5987 58.2842 40.3549 58.5425L40.1662 58.5876L40.1465 58.6202C40.0261 58.5758 39.9754 58.5428 39.8473 58.5659C39.7873 58.6447 39.7289 58.7245 39.672 58.8055C39.4712 58.8594 39.2703 58.8895 39.0649 58.9196C39.0586 58.731 39.1153 58.6163 39.2312 58.4729C39.7112 58.382 40.0354 57.8955 40.3858 57.5876L40.4134 57.5637C40.4786 57.6227 40.4917 57.6354 40.5767 57.6537C40.6893 57.5992 40.741 57.4448 40.7945 57.3371Z" fill="#DD0901"/>
<path d="M40.167 58.5876C40.1888 58.3623 40.3405 58.1299 40.4953 57.9726C40.6561 57.809 40.7621 57.7268 40.9955 57.7195C40.7965 58.0131 40.5995 58.2842 40.3557 58.5425L40.167 58.5876Z" fill="#0A806B"/>
<path d="M44.5629 36.2241C45.5276 36.2141 46.4924 36.2099 47.4571 36.2117C48.1988 36.2104 49.0248 36.1288 49.7483 36.3022C50.0028 36.3632 50.208 36.4816 50.3966 36.6633C50.69 36.946 50.8517 37.2973 51.0084 37.6656C51.0148 37.8121 51.0199 37.9586 51.0237 38.1052C50.9402 38.7722 50.7 39.3508 50.164 39.7815C49.6307 40.2099 49.0224 40.2496 48.3714 40.2394C46.7853 41.329 45.5862 42.591 45.2205 44.5418C45.1595 44.8674 45.1316 45.1915 45.121 45.5221L44.3243 45.532C42.3429 45.4954 40.3574 45.526 38.3753 45.517C37.8827 45.5315 37.3696 45.5602 36.8824 45.4772C36.8207 44.8955 36.7457 44.3237 36.5735 43.7626C36.1534 42.3938 35.1548 40.9392 33.8631 40.2617C33.2459 40.2879 32.5151 40.0847 32.0348 39.6902C31.5228 39.2697 31.322 38.7126 31.2676 38.0762L31.2295 37.797C31.3468 37.422 31.4724 37.0686 31.7535 36.7797C32.0006 36.5259 32.3208 36.3692 32.6631 36.289C33.2069 36.1616 33.8082 36.2242 34.3637 36.2291C35.1089 36.2415 35.8541 36.2408 36.5992 36.2271C37.1714 36.3017 37.7616 36.2726 38.3381 36.2666C39.0514 36.2938 39.7643 36.2643 40.4776 36.27C41.0215 36.204 41.6069 36.2571 42.1573 36.2466C42.7853 36.253 43.994 36.3404 44.5629 36.2241Z" fill="#D7D8BB"/>
<path d="M33.8633 40.2617C34.7214 40.1066 35.7123 40.1978 36.5836 40.1982L40.9947 40.1851C41.0778 41.9523 40.9935 43.7255 41.0012 45.4937C40.3667 45.4899 38.9452 45.3931 38.3755 45.517C37.8829 45.5315 37.3697 45.5602 36.8826 45.4772C36.8209 44.8955 36.7459 44.3237 36.5737 43.7626C36.1536 42.3938 35.155 40.9392 33.8633 40.2617Z" fill="#FEFEFE"/>
<path d="M31.2295 37.797C31.3468 37.422 31.4724 37.0686 31.7535 36.7797C32.0006 36.5259 32.3208 36.3692 32.6631 36.289C33.2069 36.1616 33.8082 36.2242 34.3637 36.2291C35.1089 36.2415 35.8541 36.2408 36.5992 36.2271C37.1714 36.3017 37.7616 36.2726 38.3381 36.2666C39.0514 36.2938 39.7643 36.2643 40.4776 36.27C40.6507 36.28 40.8239 36.2868 40.9973 36.2904C40.9989 36.895 41.0214 37.5085 40.988 38.1118L40.6346 38.1239C40.7564 38.1356 40.8783 38.1511 41.0008 38.1485C40.9984 38.8262 40.9793 39.5079 40.9945 40.1851L36.5834 40.1982C35.7121 40.1978 34.7212 40.1066 33.8631 40.2617C33.2459 40.2879 32.5151 40.0847 32.0348 39.6902C31.5228 39.2697 31.322 38.7126 31.2676 38.0762L31.2295 37.797Z" fill="#F6BE0D"/>
<path d="M31.2295 37.797C31.3468 37.422 31.4724 37.0686 31.7535 36.7797C32.0006 36.5259 32.3208 36.3692 32.6631 36.289C33.2069 36.1616 33.8082 36.2242 34.3637 36.2291C35.1089 36.2415 35.8541 36.2408 36.5992 36.2271C37.1714 36.3017 37.7616 36.2726 38.3381 36.2666C39.0514 36.2938 39.7643 36.2643 40.4776 36.27C40.6507 36.28 40.8239 36.2868 40.9973 36.2904C40.9989 36.895 41.0214 37.5085 40.988 38.1118L40.6346 38.1239C39.6605 38.0843 38.6733 38.1252 37.6975 38.1173L31.2676 38.0762L31.2295 37.797Z" fill="#FEFEFE"/>
<path d="M44.5629 36.2241C45.5276 36.2141 46.4923 36.2099 47.4571 36.2117C48.1988 36.2104 49.0248 36.1288 49.7483 36.3022C50.0027 36.3632 50.208 36.4816 50.3966 36.6633C50.69 36.946 50.8517 37.2973 51.0084 37.6656C51.0148 37.8121 51.0199 37.9586 51.0237 38.1052C50.9401 38.7722 50.7 39.3508 50.1639 39.7815C49.6307 40.2099 49.0224 40.2496 48.3714 40.2394C47.3278 40.1537 46.2577 40.1985 45.2107 40.1989L40.9945 40.1851C40.9793 39.5079 40.9984 38.8262 41.0008 38.1485C40.8782 38.1511 40.7564 38.1356 40.6346 38.1239L40.988 38.1118C41.0214 37.5085 40.9988 36.895 40.9972 36.2904C40.8239 36.2868 40.6507 36.28 40.4775 36.27C41.0215 36.204 41.6069 36.2571 42.1573 36.2466C42.7853 36.253 43.994 36.3404 44.5629 36.2241Z" fill="#E49008"/>
<path d="M44.5629 36.2241C45.5276 36.2141 46.4923 36.2099 47.4571 36.2117C48.1988 36.2104 49.0248 36.1288 49.7483 36.3022C50.0027 36.3632 50.208 36.4816 50.3966 36.6633C50.69 36.946 50.8517 37.2973 51.0084 37.6656C51.0148 37.8121 51.0199 37.9586 51.0237 38.1052C49.6689 38.0462 48.2892 38.1178 46.9314 38.1176C44.9586 38.1173 42.9719 38.0667 41.0008 38.1485C40.8782 38.1511 40.7564 38.1356 40.6346 38.1239L40.988 38.1118C41.0214 37.5085 40.9988 36.895 40.9972 36.2904C40.8239 36.2868 40.6507 36.28 40.4775 36.27C41.0215 36.204 41.6069 36.2571 42.1573 36.2466C42.7853 36.253 43.994 36.3404 44.5629 36.2241Z" fill="#D7D8BB"/>
<path d="M37.4018 4.19381C37.7744 3.61041 38.2923 3.20826 38.8582 2.82127C38.2691 3.92023 37.933 5.08319 38.3074 6.31405C38.8301 8.03279 40.2711 9.19729 41.5271 10.3863C46.0108 14.6311 46.4602 18.9618 44.45 24.5416C45.7844 23.7222 46.6937 22.9362 47.0722 21.3586C47.4406 19.8225 47.4254 17.8955 46.7305 16.4476C47.1648 16.7703 47.5872 17.091 47.9703 17.4754C49.3466 18.8567 50.2209 20.8045 50.5074 22.7207C50.9848 25.9138 49.9909 29.7975 48.0676 32.3908C47.5693 33.1965 46.9071 33.9099 46.2897 34.6251C45.8765 35.011 44.8838 35.8326 44.5634 36.2241C43.9945 36.3404 42.7858 36.253 42.1579 36.2466C41.6074 36.2571 41.022 36.204 40.4781 36.27C39.7648 36.2643 39.0519 36.2938 38.3386 36.2666C37.7621 36.2726 37.172 36.3017 36.5997 36.2271C36.5241 36.0223 35.3859 35.0533 35.1476 34.8277C32.7012 32.0513 31.2005 29.4972 32.0643 25.6594C32.3127 24.556 32.7077 23.4934 33.0777 22.4268C33.4879 21.2443 33.867 20.087 33.6853 18.8174C33.4571 17.2226 32.3466 15.933 31.0998 14.9956C30.9411 14.9038 30.7815 14.8135 30.6211 14.7247C32.9243 14.8235 35.2034 15.4822 36.8047 17.2317C37.2596 17.7287 37.7396 18.4278 37.894 19.0933L37.9482 19.072C38.2861 18.6 38.4636 17.9382 38.5686 17.3737C39.2719 13.5922 36.5924 11.0578 36.4499 7.50921C36.4068 6.43642 36.6448 5.01119 37.4018 4.19381Z" fill="#F6BE0D"/>
<path d="M37.4021 4.19382C37.6621 4.08175 37.8378 3.79364 38.0538 3.61069C37.3409 5.15334 37.3187 6.61967 37.8948 8.20609C39.1531 11.6717 42.3967 14.3549 40.5392 18.38C39.9564 19.643 39.0634 20.4476 37.9185 21.1972C37.9969 20.4858 37.9748 19.804 37.8943 19.0934L37.9485 19.072C38.2864 18.6 38.4639 17.9382 38.5689 17.3737C39.2721 13.5922 36.5927 11.0578 36.4502 7.50922C36.4071 6.43643 36.6451 5.0112 37.4021 4.19382Z" fill="#E49008"/>
<path d="M35.2859 29.9193C35.2818 29.8073 35.2804 29.6952 35.2818 29.5831C35.2831 29.471 35.2872 29.359 35.2939 29.2471C35.3007 29.1352 35.3103 29.0235 35.3225 28.9121C35.3348 28.8007 35.3498 28.6896 35.3675 28.5788C35.3851 28.4681 35.4055 28.3579 35.4286 28.2482C35.4516 28.1385 35.4773 28.0294 35.5057 27.9209C35.5341 27.8125 35.5651 27.7048 35.5988 27.5978C35.6324 27.4909 35.6687 27.3848 35.7075 27.2797C36.6691 24.6046 38.7536 23.7452 41.0908 22.5578C41.6139 22.2921 42.0799 21.9296 42.6123 21.677C41.8473 22.6678 41.172 23.944 41.278 25.2366C41.2818 25.2832 41.2867 25.3296 41.2928 25.376C41.2989 25.4222 41.3061 25.4684 41.3145 25.5143C41.3228 25.5603 41.3322 25.606 41.3428 25.6515C41.3534 25.697 41.3651 25.7423 41.3779 25.7872C41.3906 25.8321 41.4045 25.8767 41.4195 25.9209C41.4345 25.9651 41.4506 26.009 41.4677 26.0525C41.4849 26.0959 41.503 26.1389 41.5223 26.1815C41.5415 26.2241 41.5618 26.2661 41.5831 26.3077C41.6044 26.3493 41.6267 26.3903 41.6501 26.4307C41.6734 26.4712 41.6977 26.5111 41.7229 26.5504C41.7482 26.5897 41.7745 26.6283 41.8017 26.6663C41.8288 26.7043 41.8569 26.7416 41.8859 26.7782C41.9149 26.8148 41.9448 26.8507 41.9755 26.8858C42.0063 26.921 42.0379 26.9554 42.0704 26.989C42.1028 27.0226 42.136 27.0554 42.1701 27.0873C42.2042 27.1193 42.239 27.1504 42.2746 27.1807C42.8904 27.6976 43.7117 27.8898 44.5025 27.812C46.4376 27.6217 47.5589 26.3788 48.7136 24.9553C48.5772 25.4596 48.5087 25.9855 48.3953 26.4962L48.3453 26.4182C48.013 26.62 47.5167 27.5991 47.2327 27.9522C46.1995 29.2372 44.07 30.0259 42.4584 29.6396C41.6043 29.435 40.829 28.9276 40.3719 28.1676C39.9061 27.3929 39.8435 26.4705 40.0601 25.6044C40.214 24.989 40.5159 24.4129 40.8855 23.9004C40.3292 24.2357 39.7458 24.5186 39.2097 24.8881C37.8178 25.8472 36.9496 27.3273 36.5397 28.9457C36.4993 29.1038 36.4697 29.2639 36.451 29.4261C36.1682 31.2695 36.3365 32.6671 36.8881 34.4323C36.181 33.6083 35.5925 32.2081 35.4137 31.1449C35.3456 30.7401 35.3443 30.3258 35.2859 29.9193Z" fill="#F75A02"/>
<path d="M31.0996 14.9956C31.1668 14.9312 31.1818 14.8963 31.28 14.8976C31.7615 14.9037 32.7833 15.5018 33.1646 15.8054C33.3633 15.9636 33.5449 16.1561 33.7125 16.3466C35.1512 17.9823 35.3759 20.1846 35.2304 22.2713C35.0786 24.4476 34.3992 27.9114 35.22 29.9499L35.2654 29.9663L35.2855 29.9193C35.3438 30.3258 35.3451 30.7401 35.4132 31.1449C35.592 32.2081 36.1805 33.6083 36.8877 34.4323C37.0546 34.8355 37.6571 36.0884 38.0702 36.2325C38.148 36.2597 38.2559 36.2601 38.3384 36.2666C37.7619 36.2726 37.1718 36.3017 36.5995 36.2271C36.5239 36.0223 35.3857 35.0533 35.1474 34.8277C32.701 32.0513 31.2003 29.4972 32.0641 25.6594C32.3125 24.556 32.7075 23.4934 33.0775 22.4268C33.4877 21.2443 33.8668 20.087 33.6851 18.8174C33.457 17.2226 32.3464 15.933 31.0996 14.9956Z" fill="#E49008"/>
<path d="M36.4506 29.4261C36.4693 29.2639 36.4989 29.1038 36.5393 28.9457C36.9491 27.3273 37.8174 25.8472 39.2093 24.8881C39.7454 24.5186 40.3288 24.2357 40.8851 23.9004C40.5155 24.4129 40.2136 24.989 40.0597 25.6044C39.8431 26.4705 39.9057 27.3929 40.3715 28.1676C40.8286 28.9276 41.6039 29.435 42.458 29.6396C44.0696 30.0259 46.1991 29.2372 47.2323 27.9522C47.5163 27.5991 48.0126 26.6201 48.3449 26.4182L48.3949 26.4962C48.0748 27.9123 47.681 29.5031 46.9381 30.7602C47.1107 30.9167 47.2968 31.0716 47.4299 31.2644C47.6234 31.5445 47.8485 32.2342 48.0674 32.3908C47.5692 33.1965 46.907 33.9099 46.2896 34.6251C45.8763 35.011 44.8837 35.8326 44.5633 36.2241C43.9944 36.3404 42.7857 36.253 42.1577 36.2466C41.6073 36.2571 41.0219 36.204 40.4779 36.27C39.7647 36.2643 39.0518 36.2938 38.3385 36.2666C38.2559 36.2601 38.1481 36.2597 38.0702 36.2325C37.6572 36.0884 37.0547 34.8355 36.8877 34.4323C36.3361 32.6671 36.1677 31.2695 36.4506 29.4261Z" fill="#DD0901"/>
<path d="M43.3799 35.1776C44.502 34.2993 45.4954 32.9998 46.2917 31.825C46.5211 31.4866 46.6731 31.0692 46.9376 30.7602C47.1102 30.9167 47.2962 31.0716 47.4294 31.2644C47.6229 31.5444 47.848 32.2342 48.0669 32.3908C47.5687 33.1965 46.9065 33.9099 46.2891 34.6251C45.8758 35.011 44.8832 35.8326 44.5628 36.2241C43.9939 36.3404 42.7852 36.253 42.1572 36.2466C42.5843 35.9301 42.9937 35.5439 43.3799 35.1776Z" fill="#F75A02"/>
<path d="M38.6259 26.5352C38.3221 27.8504 38.4352 29.21 39.1657 30.3698C39.7098 31.2336 40.6376 31.8428 41.6288 32.0634C42.7615 32.3154 43.6735 31.9803 44.7349 31.6178C44.5974 32.1078 44.4337 32.5888 44.2439 33.061C44.0596 33.5225 43.4109 34.7875 43.3804 35.1776C42.9942 35.5439 42.5848 35.9301 42.1577 36.2466C41.6073 36.2571 41.0219 36.204 40.4779 36.27C39.7647 36.2643 39.0518 36.2938 38.3385 36.2666C38.2559 36.2601 38.1481 36.2597 38.0702 36.2325C37.6572 36.0884 37.0547 34.8355 36.8877 34.4323C36.3361 32.6671 36.1677 31.2695 36.4506 29.4261C36.5578 29.3676 36.6543 29.3073 36.735 29.214C37.0375 28.8644 37.2731 28.4192 37.523 28.0296C37.8539 27.5044 38.2215 27.0063 38.6259 26.5352Z" fill="#BA0100"/>
</svg>
